<svg xmlns="http://www.w3.org/2000/svg" xmlns:xlink="http://www.w3.org/1999/xlink" width="266" height="474" viewBox="0 0 266 474">
  <defs>
    <clipPath id="clip-path">
      <path id="Path_152" data-name="Path 152" d="M45.345,659.773s71.139,27.422,105.843,29.62V794.146s-81.518-10.114-132-63.213C27.041,702.758,45.345,659.773,45.345,659.773Z" transform="translate(-1.188 -0.773)" fill="#202225" stroke="#2f3136" stroke-linecap="round" stroke-linejoin="round" stroke-width="2"/>
    </clipPath>
    <clipPath id="clip-path-2">
      <path id="Path_153" data-name="Path 153" d="M125.031,659.773s-71.139,27.422-105.843,29.62V794.146s81.518-10.114,132-63.213C143.335,702.758,125.031,659.773,125.031,659.773Z" transform="translate(130.812 -0.773)" fill="#202225" stroke="#2f3136" stroke-linecap="round" stroke-linejoin="round" stroke-width="2"/>
    </clipPath>
  </defs>
  <g id="Group_383" data-name="Group 383" transform="translate(-17 -428)">
    <path id="Rectangle_54" data-name="Rectangle 54" d="M97.5,0h15A97.5,97.5,0,0,1,210,97.5V375a0,0,0,0,1,0,0H0a0,0,0,0,1,0,0V97.5A97.5,97.5,0,0,1,97.5,0Z" transform="translate(45 525)" fill="#ffd167"/>
    <g id="Rectangle_272" data-name="Rectangle 272" transform="translate(45 729)" fill="#202225" stroke="#2f3136" stroke-width="2">
      <rect width="210" height="171" stroke="none"/>
      <rect x="-1" y="-1" width="212" height="173" fill="none"/>
    </g>
    <g id="Path_140" data-name="Path 140" transform="translate(150.426 448) rotate(45)" fill="#202225">
      <path d="M -12.00895214080811 92.00896453857422 L 21.72697830200195 21.72697830200195 L 92.00896453857422 -12.00895214080811 L 58.27303695678711 58.27303695678711 L -12.00895214080811 92.00896453857422 Z" stroke="none"/>
      <path d="M 89.87576293945312 -9.875762939453125 L 22.47645950317383 22.47645950317383 L -9.875762939453125 89.87576293945312 L 57.52354431152344 57.52354431152344 L 89.87576293945312 -9.875762939453125 M 94.14213562011719 -14.14213562011719 L 59.02250671386719 59.02250671386719 L -14.14213562011719 94.14213562011719 L 20.97749328613281 20.97749328613281 L 94.14213562011719 -14.14213562011719 Z" stroke="none" fill="#2f3136"/>
    </g>
    <path id="Union_18" data-name="Union 18" d="M4.5,9a4.5,4.5,0,0,1,0-9h33a4.5,4.5,0,0,1,0,9Z" transform="translate(129 549.557)" fill="#fff"/>
    <g id="Group_298" data-name="Group 298" transform="translate(93 557.057)">
      <line id="Line_24" data-name="Line 24" x1="6" y2="6" fill="none" stroke="#ff8c34" stroke-linecap="round" stroke-width="3.5"/>
      <line id="Line_25" data-name="Line 25" x1="6" y2="6" transform="translate(7.5)" fill="none" stroke="#ff8c34" stroke-linecap="round" stroke-width="3.5"/>
      <line id="Line_26" data-name="Line 26" x1="6" y2="6" transform="translate(15)" fill="none" stroke="#ff8c34" stroke-linecap="round" stroke-width="3.5"/>
    </g>
    <g id="Group_299" data-name="Group 299" transform="translate(186 557.057)">
      <line id="Line_24-2" data-name="Line 24" x1="6" y2="6" fill="none" stroke="#ff8c34" stroke-linecap="round" stroke-width="3.5"/>
      <line id="Line_25-2" data-name="Line 25" x1="6" y2="6" transform="translate(7.5)" fill="none" stroke="#ff8c34" stroke-linecap="round" stroke-width="3.5"/>
      <line id="Line_26-2" data-name="Line 26" x1="6" y2="6" transform="translate(15)" fill="none" stroke="#ff8c34" stroke-linecap="round" stroke-width="3.5"/>
    </g>
    <g id="Union_19" data-name="Union 19" transform="translate(130 496)" fill="#202225">
      <path d="M 19.99979972839355 36.99980163574219 C 15.00155925750732 36.99980163574219 10.23931980133057 36.62731170654297 6.590349674224854 35.9509391784668 C 4.85237979888916 35.62879180908203 3.452709674835205 35.2553825378418 2.430229663848877 34.84107971191406 C 1.304940462112427 34.3851318359375 1.043022871017456 34.03463745117188 0.9999997019767761 33.96475219726562 L 0.9999997019767761 4.035049438476562 C 1.043022871017456 3.965164422988892 1.304940462112427 3.614668369293213 2.430229663848877 3.158720731735229 C 3.452709674835205 2.744420766830444 4.85237979888916 2.371010780334473 6.590349674224854 2.048860788345337 C 10.23931980133057 1.372490763664246 15.00155925750732 1.000000834465027 19.99979972839355 1.000000834465027 C 24.99803924560547 1.000000834465027 29.76028060913086 1.372490763664246 33.40924835205078 2.048860788345337 C 35.14722061157227 2.371010780334473 36.54689025878906 2.744420766830444 37.56937026977539 3.158720731735229 C 38.69466018676758 3.614668369293213 38.95657730102539 3.965164422988892 38.99959945678711 4.035049438476562 L 38.99959945678711 33.96475219726562 C 38.95657730102539 34.03463745117188 38.69466018676758 34.3851318359375 37.56937026977539 34.84107971191406 C 36.54689025878906 35.2553825378418 35.14722061157227 35.62879180908203 33.40924835205078 35.9509391784668 C 29.76028060913086 36.62731170654297 24.99803924560547 36.99980163574219 19.99979972839355 36.99980163574219 Z" stroke="none"/>
      <path d="M 19.99979972839355 35.99980163574219 C 24.57206916809082 35.99980163574219 29.00641059875488 35.67958068847656 32.48596954345703 35.09812164306641 C 36.13652420043945 34.48809051513672 37.53754806518555 33.80914688110352 37.99959945678711 33.51840591430664 L 37.99959945678711 4.481397151947021 C 37.53754806518555 4.190655708312988 36.13652420043945 3.511710643768311 32.48596954345703 2.901680707931519 C 29.00641059875488 2.320220708847046 24.57206916809082 2.000000715255737 19.99979972839355 2.000000715255737 C 15.42752933502197 2.000000715255737 10.99318981170654 2.320220708847046 7.513629913330078 2.901680707931519 C 3.863075017929077 3.511710643768311 2.4620521068573 4.190655708312988 1.999999761581421 4.481397151947021 L 1.999999761581421 33.51840591430664 C 2.4620521068573 33.80914688110352 3.863075017929077 34.48809051513672 7.513629913330078 35.09812164306641 C 10.99318981170654 35.67958068847656 15.42752933502197 35.99980163574219 19.99979972839355 35.99980163574219 M 19.99979972839355 37.99980163574219 C 8.954099655151367 37.99980163574219 -2.716064386731887e-07 36.20880126953125 -2.716064386731887e-07 34.00020217895508 L -2.716064386731887e-07 3.999600887298584 C -2.716064386731887e-07 1.791000843048096 8.954099655151367 8.178710686479462e-07 19.99979972839355 8.178710686479462e-07 C 31.04549980163574 8.178710686479462e-07 39.99959945678711 1.791000843048096 39.99959945678711 3.999600887298584 L 39.99959945678711 34.00020217895508 C 39.99959945678711 36.20880126953125 31.04549980163574 37.99980163574219 19.99979972839355 37.99980163574219 Z" stroke="none" fill="#2f3136"/>
    </g>
    <g id="Group_326" data-name="Group 326" transform="translate(160.5 502.5)">
      <path id="Polygon_5" data-name="Polygon 5" d="M16.5,0,33,33H0Z" transform="matrix(0.985, 0.174, -0.174, 0.985, 5.73, 0)" fill="#ffd167"/>
      <path id="Polygon_8" data-name="Polygon 8" d="M6,0l6,16.5H0Z" transform="matrix(0.985, 0.174, -0.174, 0.985, 15.029, 7.732)" fill="#ffaf34"/>
    </g>
    <g id="Group_325" data-name="Group 325" transform="translate(101.271 502.5)">
      <path id="Polygon_5-2" data-name="Polygon 5" d="M16.5,0,33,33H0Z" transform="matrix(0.985, -0.174, 0.174, 0.985, 0, 5.73)" fill="#ffd167"/>
      <path id="Polygon_8-2" data-name="Polygon 8" d="M6,0l6,16.5H0Z" transform="matrix(0.985, -0.174, 0.174, 0.985, 11.382, 9.816)" fill="#ffaf34"/>
    </g>
    <rect id="Rectangle_273" data-name="Rectangle 273" width="210" height="56" transform="translate(45 664)" fill="#fff"/>
    <line id="Line_56" data-name="Line 56" y2="61" transform="translate(217 505)" fill="none" stroke="#fff564" stroke-linecap="round" stroke-width="1"/>
    <circle id="Ellipse_86" data-name="Ellipse 86" cx="3" cy="3" r="3" transform="translate(214 568)" fill="#fff564"/>
    <path id="Path_147" data-name="Path 147" d="M0,0H6L8,23H-2Z" transform="translate(214 576)" fill="#fff564"/>
    <path id="Polygon_9" data-name="Polygon 9" d="M7,0l7,6H0Z" transform="translate(157 670) rotate(180)" fill="#202225"/>
    <path id="Polygon_10" data-name="Polygon 10" d="M7,0l7,32H0Z" transform="translate(143 670)" fill="#202225"/>
    <g id="Group_377" data-name="Group 377">
      <path id="Path_148" data-name="Path 148" d="M45.345,659.773s71.139,27.422,105.843,29.62V794.146s-81.518-10.114-132-63.213C27.041,702.758,45.345,659.773,45.345,659.773Z" transform="translate(-1.188 -0.773)" fill="#202225"/>
      <path id="Path_149" data-name="Path 149" d="M125.031,659.773s-71.139,27.422-105.843,29.62V794.146s81.518-10.114,132-63.213C143.335,702.758,125.031,659.773,125.031,659.773Z" transform="translate(130.812 -0.773)" fill="#202225"/>
      <g id="Mask_Group_85" data-name="Mask Group 85" clip-path="url(#clip-path)">
        <path id="Path_150" data-name="Path 150" d="M11.13,664s87.039,48.918,152.792,59.97v34.116S57.015,722.049,5.453,688.894,11.13,664,11.13,664Z" transform="translate(-3.921 -0.087)" fill="#fff"/>
      </g>
      <g id="Mask_Group_86" data-name="Mask Group 86" clip-path="url(#clip-path-2)">
        <path id="Path_151" data-name="Path 151" d="M136.713,664S49.674,712.92-16.079,723.971v34.116S90.828,722.049,142.39,688.894,136.713,664,136.713,664Z" transform="translate(156.079 -0.087)" fill="#fff"/>
      </g>
    </g>
    <path id="Path_154" data-name="Path 154" d="M45.345,659.773s71.139,27.422,105.843,29.62V794.146s-81.518-10.114-132-63.213C27.041,702.758,45.345,659.773,45.345,659.773Z" transform="translate(-1.188 -0.773)" fill="none" stroke="#2f3136" stroke-linecap="round" stroke-linejoin="round" stroke-width="2"/>
    <path id="Path_155" data-name="Path 155" d="M125.031,659.773s-71.139,27.422-105.843,29.62V794.146s81.518-10.114,132-63.213C143.335,702.758,125.031,659.773,125.031,659.773Z" transform="translate(130.812 -0.773)" fill="none" stroke="#2f3136" stroke-linecap="round" stroke-linejoin="round" stroke-width="2"/>
    <g id="Group_380" data-name="Group 380">
      <rect id="Rectangle_297" data-name="Rectangle 297" width="100" height="16" rx="2" transform="translate(100 566)" fill="#ef2323"/>
      <rect id="Rectangle_298" data-name="Rectangle 298" width="7" height="16" transform="translate(115 566)" fill="#ffe79a"/>
    </g>
  </g>
</svg>
